<?xml version="1.0" encoding="UTF-8" standalone="no"?><!DOCTYPE svg PUBLIC "-//W3C//DTD SVG 1.1//EN" "http://www.w3.org/Graphics/SVG/1.1/DTD/svg11.dtd"><svg width="100%" height="100%" viewBox="0 0 1600 1600" version="1.1" xmlns="http://www.w3.org/2000/svg" xmlns:xlink="http://www.w3.org/1999/xlink" xml:space="preserve" xmlns:serif="http://www.serif.com/" style="fill-rule:evenodd;clip-rule:evenodd;stroke-linejoin:round;stroke-miterlimit:2;"><g><path d="M1300,1600l-1000,0c-165.708,0 -300,-134.292 -300,-300l0,-1000c0,-165.708 134.292,-300 300,-300l1000,0c165.708,0 300,134.292 300,300l0,1000c0,165.708 -134.292,300 -300,300Z" style="fill:#e6f9fb;fill-rule:nonzero;"/><path d="M1141.65,400l-683.3,0c-32,0 -58.35,26.35 -58.35,58.35l0,683.35c0,31.95 26.35,58.3 58.35,58.3l683.35,0c31.95,0 58.3,-26.35 58.3,-58.35l0,-683.3c0,-32 -26.35,-58.35 -58.35,-58.35Zm-346.304,309l-122.642,86.346c-7.65,5.354 -17.658,6.004 -26.008,2c-7.992,-4.346 -13.346,-13.004 -13.346,-22.346l-0,-325l333.35,0l-0,325c-0,9.342 -5.354,18 -13.346,22.346c-3.712,1.662 -7.7,2.654 -11.704,2.654c-4.996,0 -9.992,-1.646 -14.354,-4.654l-122.642,-86.346c-2.654,-2 -6.654,-2 -9.308,0Zm304.654,366c0,13.658 -11.346,25 -25,25l-216.65,0c-13.654,0 -25,-11.342 -25,-25l-0,-116.65c-0,-13.654 11.346,-25 25,-25l216.65,-0c13.654,-0 25,11.346 25,25l0,116.65Z" style="fill:#25c5da;fill-rule:nonzero;"/></g></svg>