<?xml version="1.0" encoding="UTF-8" standalone="no"?><!DOCTYPE svg PUBLIC "-//W3C//DTD SVG 1.1//EN" "http://www.w3.org/Graphics/SVG/1.1/DTD/svg11.dtd"><svg width="100%" height="100%" viewBox="0 0 1600 1600" version="1.1" xmlns="http://www.w3.org/2000/svg" xmlns:xlink="http://www.w3.org/1999/xlink" xml:space="preserve" xmlns:serif="http://www.serif.com/" style="fill-rule:evenodd;clip-rule:evenodd;stroke-linejoin:round;stroke-miterlimit:2;"><g><path d="M1300,1600l-1000,0c-165.708,0 -300,-134.292 -300,-300l0,-1000c0,-165.708 134.292,-300 300,-300l1000,0c165.708,0 300,134.292 300,300l0,1000c0,165.708 -134.292,300 -300,300Z" style="fill:#e5f9fa;fill-rule:nonzero;"/><path d="M583.35,580.892l-164.892,44.954c-10.908,3.012 -18.458,12.858 -18.458,24.154l0,350c0,11.296 7.55,21.142 18.392,24.104l164.908,44.938l0,-488.15l0.05,-0Z" style="fill:#8ee2eb;fill-rule:nonzero;"/><path d="M1177.2,625.096l-543.896,-47.996l0,495.8l543.896,-47.996c12.908,-1.158 22.804,-11.95 22.804,-24.904l0,-350c0,-12.954 -9.896,-23.746 -22.804,-24.904Zm-427.196,324.904c0,13.8 -11.2,25 -25,25c-13.8,0 -25,-11.2 -25,-25l0,-250c0,-13.8 11.2,-25 25,-25c13.8,0 25,11.2 25,25l0,250Zm133.35,-16.65c-0,13.8 -11.2,25 -25,25c-13.804,-0 -25,-11.2 -25,-25l-0,-216.65c-0,-13.804 11.196,-25 25,-25c13.8,-0 25,11.196 25,25l-0,216.65Zm133.3,-16.7c0,13.804 -11.196,25 -25,25c-13.8,0 -25,-11.196 -25,-25l0,-183.35c0,-13.8 11.2,-25 25,-25c13.804,0 25,11.2 25,25l0,183.35Zm116.7,-8.3c-0,13.8 -11.2,25 -25,25c-13.804,-0 -25,-11.2 -25,-25l-0,-158.35c-0,-13.8 11.196,-25 25,-25c13.8,0 25,11.2 25,25l-0,158.35Z" style="fill:#25c5da;fill-rule:nonzero;"/></g></svg>