<?xml version="1.0" encoding="UTF-8" standalone="no"?><!DOCTYPE svg PUBLIC "-//W3C//DTD SVG 1.1//EN" "http://www.w3.org/Graphics/SVG/1.1/DTD/svg11.dtd"><svg width="100%" height="100%" viewBox="0 0 1600 1600" version="1.1" xmlns="http://www.w3.org/2000/svg" xmlns:xlink="http://www.w3.org/1999/xlink" xml:space="preserve" xmlns:serif="http://www.serif.com/" style="fill-rule:evenodd;clip-rule:evenodd;stroke-linejoin:round;stroke-miterlimit:2;"><g><path d="M1300,1600l-1000,0c-165.708,0 -300,-134.292 -300,-300l0,-1000c0,-165.708 134.292,-300 300,-300l1000,0c165.708,0 300,134.292 300,300l0,1000c0,165.708 -134.292,300 -300,300Z" style="fill:#e5f9fa;fill-rule:nonzero;"/><path d="M1175,1200l-116.65,0c-13.804,0 -25,-11.2 -25,-25l-0,-41.65l-466.65,-0l-0,41.65c-0,13.8 -11.2,25 -25.004,25l-116.696,0c-13.8,0 -25,-11.2 -25,-25l0,-141.65c0,-13.804 11.2,-25 25,-25l750,-0c13.8,-0 25,11.196 25,25l0,141.65c0,13.8 -11.2,25 -25,25Z" style="fill:#8ee2eb;fill-rule:nonzero;"/><path d="M781.154,685.5c0,-30.504 24.688,-55.242 55.092,-55.242l30.454,0l-0,-205.258c-0,-13.8 -11.2,-25 -25,-25l-108.35,0l-0,141.65c-0,13.804 -11.2,25 -25,25l-83.35,0c-13.8,0 -25,-11.196 -25,-25l0,-141.65l-108.35,0c-13.8,0 -25,11.2 -25,25l0,511.442c0,13.804 11.2,25 25,25l294.042,-0c-2.896,-6.738 -4.538,-14.142 -4.538,-21.942l0,-254Z" style="fill:#25c5da;fill-rule:nonzero;"/><path d="M1111.6,663.558l-94.204,0l-0,71.142c-0,11.996 -9.85,21.958 -21.746,21.958l-43.504,0c-11.9,0 -21.746,-9.962 -21.746,-21.958l0,-71.142l-94.204,0c-11.9,0 -21.746,9.946 -21.746,21.942l0,254c0,11.996 9.846,21.942 21.746,21.942l275.354,-0c11.9,-0 21.746,-9.946 21.746,-21.942l0,-254c0.05,-11.996 -9.796,-21.942 -21.696,-21.942Z" style="fill:#25c5da;fill-rule:nonzero;"/></g></svg>